<mxfile host="app.diagrams.net" modified="2020-08-11T07:48:58.996Z" agent="5.0 (Macintosh)" etag="JBGqShipYLcO_1mG3hwi" version="13.6.2" type="github">
  <diagram id="prtHgNgQTEPvFCAcTncT" name="Page-1">
    <mxGraphModel dx="2728" dy="933" grid="1" gridSize="10" guides="1" tooltips="1" connect="1" arrows="1" fold="1" page="1" pageScale="1" pageWidth="827" pageHeight="1169" math="0" shadow="0">
      <root>
        <mxCell id="0" />
        <mxCell id="1" parent="0" />
        <mxCell id="QfxjjtC4Ntg-Y_1NFlCk-1" value="App" style="rounded=0;whiteSpace=wrap;html=1;" vertex="1" parent="1">
          <mxGeometry x="-210" y="480" width="320" height="50" as="geometry" />
        </mxCell>
        <mxCell id="QfxjjtC4Ntg-Y_1NFlCk-2" value="Infra" style="rounded=0;whiteSpace=wrap;html=1;" vertex="1" parent="1">
          <mxGeometry x="140" y="480" width="1190" height="50" as="geometry" />
        </mxCell>
        <mxCell id="QfxjjtC4Ntg-Y_1NFlCk-3" value="OS" style="rounded=0;whiteSpace=wrap;html=1;" vertex="1" parent="1">
          <mxGeometry x="270" y="330" width="110" height="50" as="geometry" />
        </mxCell>
        <mxCell id="QfxjjtC4Ntg-Y_1NFlCk-5" value="Network" style="rounded=0;whiteSpace=wrap;html=1;" vertex="1" parent="1">
          <mxGeometry x="410" y="330" width="90" height="50" as="geometry" />
        </mxCell>
        <mxCell id="QfxjjtC4Ntg-Y_1NFlCk-6" value="Storage" style="rounded=0;whiteSpace=wrap;html=1;" vertex="1" parent="1">
          <mxGeometry x="530" y="330" width="100" height="50" as="geometry" />
        </mxCell>
        <mxCell id="QfxjjtC4Ntg-Y_1NFlCk-8" value="Monitoring" style="rounded=0;whiteSpace=wrap;html=1;" vertex="1" parent="1">
          <mxGeometry x="660" y="260" width="90" height="50" as="geometry" />
        </mxCell>
        <mxCell id="QfxjjtC4Ntg-Y_1NFlCk-12" value="Kubernetes" style="rounded=0;whiteSpace=wrap;html=1;" vertex="1" parent="1">
          <mxGeometry x="660" y="330" width="510" height="50" as="geometry" />
        </mxCell>
        <mxCell id="QfxjjtC4Ntg-Y_1NFlCk-13" value="Log &amp;amp; Metrics" style="rounded=0;whiteSpace=wrap;html=1;" vertex="1" parent="1">
          <mxGeometry x="-210" y="610" width="1540" height="40" as="geometry" />
        </mxCell>
        <mxCell id="QfxjjtC4Ntg-Y_1NFlCk-14" value="OpenTracing/ZipKin/Jaeger" style="rounded=0;whiteSpace=wrap;html=1;" vertex="1" parent="1">
          <mxGeometry x="-209" y="400" width="140" height="50" as="geometry" />
        </mxCell>
        <mxCell id="QfxjjtC4Ntg-Y_1NFlCk-15" value="OpenTelemetry" style="rounded=0;whiteSpace=wrap;html=1;" vertex="1" parent="1">
          <mxGeometry x="-40" y="400" width="150" height="50" as="geometry" />
        </mxCell>
        <mxCell id="QfxjjtC4Ntg-Y_1NFlCk-17" value="LB" style="rounded=0;whiteSpace=wrap;html=1;" vertex="1" parent="1">
          <mxGeometry x="140" y="400" width="110" height="50" as="geometry" />
        </mxCell>
        <mxCell id="QfxjjtC4Ntg-Y_1NFlCk-19" value="HTTP" style="rounded=0;whiteSpace=wrap;html=1;" vertex="1" parent="1">
          <mxGeometry x="140" y="330" width="50" height="50" as="geometry" />
        </mxCell>
        <mxCell id="QfxjjtC4Ntg-Y_1NFlCk-20" value="Cert" style="rounded=0;whiteSpace=wrap;html=1;" vertex="1" parent="1">
          <mxGeometry x="200" y="330" width="50" height="50" as="geometry" />
        </mxCell>
        <mxCell id="QfxjjtC4Ntg-Y_1NFlCk-21" value="process" style="rounded=0;whiteSpace=wrap;html=1;" vertex="1" parent="1">
          <mxGeometry x="270" y="260" width="50" height="50" as="geometry" />
        </mxCell>
        <mxCell id="QfxjjtC4Ntg-Y_1NFlCk-23" value="Service" style="rounded=0;whiteSpace=wrap;html=1;" vertex="1" parent="1">
          <mxGeometry x="330" y="260" width="50" height="50" as="geometry" />
        </mxCell>
        <mxCell id="QfxjjtC4Ntg-Y_1NFlCk-25" value="NIC" style="rounded=0;whiteSpace=wrap;html=1;" vertex="1" parent="1">
          <mxGeometry x="410" y="260" width="90" height="50" as="geometry" />
        </mxCell>
        <mxCell id="QfxjjtC4Ntg-Y_1NFlCk-28" value="LVM" style="rounded=0;whiteSpace=wrap;html=1;" vertex="1" parent="1">
          <mxGeometry x="530" y="260" width="100" height="50" as="geometry" />
        </mxCell>
        <mxCell id="QfxjjtC4Ntg-Y_1NFlCk-29" value="API" style="rounded=0;whiteSpace=wrap;html=1;" vertex="1" parent="1">
          <mxGeometry x="760" y="260" width="50" height="50" as="geometry" />
        </mxCell>
        <mxCell id="QfxjjtC4Ntg-Y_1NFlCk-31" value="Controller" style="rounded=0;whiteSpace=wrap;html=1;" vertex="1" parent="1">
          <mxGeometry x="820" y="260" width="60" height="50" as="geometry" />
        </mxCell>
        <mxCell id="QfxjjtC4Ntg-Y_1NFlCk-32" value="Etcd" style="rounded=0;whiteSpace=wrap;html=1;" vertex="1" parent="1">
          <mxGeometry x="890" y="260" width="50" height="50" as="geometry" />
        </mxCell>
        <mxCell id="QfxjjtC4Ntg-Y_1NFlCk-33" value="Network" style="rounded=0;whiteSpace=wrap;html=1;" vertex="1" parent="1">
          <mxGeometry x="950" y="260" width="100" height="50" as="geometry" />
        </mxCell>
        <mxCell id="QfxjjtC4Ntg-Y_1NFlCk-34" value="Storage" style="rounded=0;whiteSpace=wrap;html=1;" vertex="1" parent="1">
          <mxGeometry x="1060" y="260" width="50" height="50" as="geometry" />
        </mxCell>
        <mxCell id="QfxjjtC4Ntg-Y_1NFlCk-35" value="Ingress" style="rounded=0;whiteSpace=wrap;html=1;" vertex="1" parent="1">
          <mxGeometry x="1120" y="260" width="50" height="50" as="geometry" />
        </mxCell>
        <mxCell id="QfxjjtC4Ntg-Y_1NFlCk-36" value="Host" style="rounded=0;whiteSpace=wrap;html=1;" vertex="1" parent="1">
          <mxGeometry x="270" y="400" width="900" height="50" as="geometry" />
        </mxCell>
        <mxCell id="QfxjjtC4Ntg-Y_1NFlCk-37" value="Prome" style="rounded=0;whiteSpace=wrap;html=1;" vertex="1" parent="1">
          <mxGeometry x="660" y="210" width="40" height="30" as="geometry" />
        </mxCell>
        <mxCell id="QfxjjtC4Ntg-Y_1NFlCk-38" value="Flunted" style="rounded=0;whiteSpace=wrap;html=1;" vertex="1" parent="1">
          <mxGeometry x="710" y="210" width="40" height="30" as="geometry" />
        </mxCell>
        <mxCell id="QfxjjtC4Ntg-Y_1NFlCk-39" value="Grafana" style="rounded=0;whiteSpace=wrap;html=1;" vertex="1" parent="1">
          <mxGeometry x="660" y="170" width="40" height="30" as="geometry" />
        </mxCell>
        <mxCell id="QfxjjtC4Ntg-Y_1NFlCk-40" value="Loki" style="rounded=0;whiteSpace=wrap;html=1;" vertex="1" parent="1">
          <mxGeometry x="710" y="170" width="40" height="30" as="geometry" />
        </mxCell>
        <mxCell id="QfxjjtC4Ntg-Y_1NFlCk-41" value="CNI" style="rounded=0;whiteSpace=wrap;html=1;" vertex="1" parent="1">
          <mxGeometry x="950" y="210" width="40" height="30" as="geometry" />
        </mxCell>
        <mxCell id="QfxjjtC4Ntg-Y_1NFlCk-42" value="DNS" style="rounded=0;whiteSpace=wrap;html=1;" vertex="1" parent="1">
          <mxGeometry x="1000" y="210" width="40" height="30" as="geometry" />
        </mxCell>
        <mxCell id="QfxjjtC4Ntg-Y_1NFlCk-43" value="PV" style="rounded=0;whiteSpace=wrap;html=1;" vertex="1" parent="1">
          <mxGeometry x="1065" y="210" width="40" height="30" as="geometry" />
        </mxCell>
        <mxCell id="QfxjjtC4Ntg-Y_1NFlCk-44" value="Cert" style="rounded=0;whiteSpace=wrap;html=1;" vertex="1" parent="1">
          <mxGeometry x="1120" y="210" width="50" height="30" as="geometry" />
        </mxCell>
        <mxCell id="QfxjjtC4Ntg-Y_1NFlCk-45" value="HTTP" style="rounded=0;whiteSpace=wrap;html=1;" vertex="1" parent="1">
          <mxGeometry x="1120" y="170" width="50" height="30" as="geometry" />
        </mxCell>
        <mxCell id="QfxjjtC4Ntg-Y_1NFlCk-47" value="Connectivity" style="rounded=0;whiteSpace=wrap;html=1;" vertex="1" parent="1">
          <mxGeometry x="980" y="170" width="40" height="30" as="geometry" />
        </mxCell>
        <mxCell id="QfxjjtC4Ntg-Y_1NFlCk-48" value="Dashboard &amp;amp; Alert" style="rounded=0;whiteSpace=wrap;html=1;" vertex="1" parent="1">
          <mxGeometry x="-209" y="550" width="1539" height="40" as="geometry" />
        </mxCell>
        <mxCell id="QfxjjtC4Ntg-Y_1NFlCk-50" value="DB" style="rounded=0;whiteSpace=wrap;html=1;" vertex="1" parent="1">
          <mxGeometry x="1200" y="400" width="130" height="50" as="geometry" />
        </mxCell>
      </root>
    </mxGraphModel>
  </diagram>
</mxfile>
